<?xml version="1.0" standalone="no"?>
<!DOCTYPE svg PUBLIC "-//W3C//DTD SVG 20010904//EN"
 "http://www.w3.org/TR/2001/REC-SVG-20010904/DTD/svg10.dtd">
<svg version="1.0" xmlns="http://www.w3.org/2000/svg"
 width="612.000000pt" height="612.000000pt" viewBox="0 0 612.000000 612.000000"
 preserveAspectRatio="xMidYMid meet">

<g transform="translate(0.000000,612.000000) scale(0.100000,-0.100000)"
fill="#000000" stroke="none">
<path d="M2560 5953 c-131 -15 -253 -64 -300 -121 -42 -51 -43 -122 -1 -179
76 -105 371 -232 739 -319 89 -21 162 -40 162 -43 0 -3 -22 -22 -47 -41 -97
-72 -203 -170 -332 -304 -60 -63 -64 -66 -82 -50 -21 19 -46 13 -56 -13 -3
-10 -26 -38 -50 -63 -91 -93 -85 -80 -77 -151 l6 -65 -41 -27 c-54 -36 -114
-114 -142 -184 -30 -76 -32 -218 -5 -356 26 -129 15 -218 -44 -348 -83 -184
-95 -231 -95 -365 l0 -122 72 -144 c54 -108 81 -152 108 -172 31 -24 35 -32
35 -71 0 -61 -20 -71 -145 -78 -119 -7 -194 -25 -294 -72 -40 -19 -81 -35 -90
-35 -10 0 -56 13 -103 29 -163 55 -237 51 -397 -23 -53 -24 -112 -49 -132 -55
-76 -24 -149 -110 -149 -177 l0 -27 21 27 c12 15 23 25 25 23 6 -6 -82 -161
-124 -220 -33 -46 -93 -87 -128 -87 -32 0 -4 -14 39 -19 l42 -6 -38 -22 c-43
-26 -104 -38 -141 -29 -13 3 -38 18 -55 32 l-31 26 0 -27 c0 -16 12 -38 30
-57 29 -28 30 -31 13 -43 -20 -15 -21 -13 41 -32 17 -5 31 -14 34 -21 6 -18
-84 12 -123 42 -18 14 -50 53 -70 86 -49 81 -129 138 -90 64 14 -28 20 -59 28
-156 l4 -47 -36 25 c-21 14 -50 24 -71 24 l-35 0 32 -19 c17 -11 50 -46 72
-79 68 -100 147 -152 275 -178 39 -9 73 -18 76 -21 3 -3 -31 -3 -75 1 -74 6
-78 5 -55 -9 14 -8 43 -20 65 -26 l40 -12 -41 -14 c-36 -12 -130 -80 -122 -88
2 -2 28 3 58 11 30 8 97 14 150 14 54 0 122 7 155 15 162 43 314 175 384 335
37 85 72 225 82 329 12 124 23 155 77 203 39 35 122 85 122 73 0 -3 -18 -29
-40 -57 -53 -66 -115 -195 -134 -278 -22 -92 -20 -249 3 -342 11 -42 41 -117
66 -168 l47 -93 -145 6 -145 6 -36 -39 c-44 -48 -46 -84 -11 -140 69 -110 94
-193 104 -348 7 -107 11 -126 30 -146 13 -14 34 -27 47 -30 31 -8 30 -30 0
-67 -33 -39 -43 -107 -22 -146 18 -35 101 -108 140 -123 77 -29 92 -7 107 158
8 86 7 108 -6 133 -9 16 -25 65 -35 107 -11 43 -35 113 -55 155 -19 42 -40 99
-47 128 -16 70 -2 81 102 77 69 -3 75 -5 78 -26 2 -12 -12 -51 -32 -86 -51
-90 -48 -118 14 -176 27 -25 75 -61 107 -80 83 -50 221 -191 286 -291 54 -85
70 -99 108 -99 15 0 19 -7 19 -32 0 -43 28 -206 41 -238 23 -58 131 -97 224
-79 81 15 85 31 35 154 -16 39 -31 81 -34 95 -3 14 -30 55 -61 90 -31 35 -58
76 -61 90 -14 63 -33 86 -148 183 -145 123 -183 161 -231 233 -47 71 -48 105
-5 193 l33 69 66 17 c98 24 170 61 223 112 l46 45 45 -15 c41 -14 47 -14 67 0
18 12 27 13 47 4 23 -10 29 -9 52 13 l26 25 58 -19 c84 -28 209 -42 301 -35
57 4 108 1 171 -10 107 -19 204 -19 298 1 38 8 70 14 72 14 2 0 16 -13 32 -29
34 -34 85 -61 133 -72 159 -36 216 -52 242 -65 28 -14 29 -17 23 -62 -4 -26
-17 -67 -29 -92 -28 -56 -116 -130 -155 -130 -28 0 -45 -13 -82 -62 l-20 -28
-39 20 c-56 29 -111 35 -147 17 -60 -31 -143 -163 -143 -227 0 -21 36 -34 125
-45 61 -7 162 20 219 59 40 27 43 28 124 30 27 0 60 9 75 19 15 10 65 69 111
131 63 85 100 125 144 155 54 36 63 47 86 108 14 38 26 78 26 89 0 32 -47 95
-108 144 l-56 45 32 3 c24 2 42 -5 72 -29 32 -26 67 -39 172 -66 134 -33 184
-58 211 -103 9 -14 29 -40 46 -58 64 -68 89 -258 46 -351 l-19 -43 21 -38 22
-37 -32 -14 c-17 -8 -40 -30 -52 -50 -11 -20 -30 -51 -42 -70 -33 -49 -33
-106 -1 -181 23 -53 90 -121 116 -116 17 3 58 54 104 129 15 24 37 55 48 69
13 17 23 51 30 101 5 47 19 95 35 124 30 58 31 76 4 135 -54 118 -99 379 -79
464 17 75 3 92 -170 201 -100 63 -113 76 -181 178 l-58 89 14 56 c33 124 28
284 -11 395 -8 23 -17 69 -20 102 -3 33 -14 86 -24 118 -24 68 -24 132 -1 282
15 103 17 110 39 109 12 0 53 -1 91 -2 l69 -2 25 -42 c53 -90 140 -148 221
-148 37 0 124 39 148 66 42 47 76 183 78 304 0 12 10 15 37 15 23 -1 43 5 55
17 10 10 29 18 42 18 14 0 40 14 59 33 33 31 35 35 42 130 8 111 5 119 -61
147 -22 10 -63 40 -90 67 -27 27 -70 64 -96 83 -27 18 -48 36 -48 40 0 4 -16
22 -35 41 -22 22 -35 44 -35 60 0 31 -17 47 -85 83 l-50 26 73 -2 c39 -2 72 0
72 3 0 15 -40 39 -85 50 -62 15 -107 37 -100 49 3 4 23 11 45 15 52 9 51 22
-2 36 l-43 12 0 93 c0 105 -14 136 -36 82 -25 -61 -80 -139 -96 -136 -13 3
-15 21 -14 123 l2 119 -22 -19 c-11 -11 -29 -36 -40 -55 -10 -19 -32 -51 -50
-70 -17 -19 -41 -48 -54 -63 l-22 -29 -34 21 c-36 22 -93 28 -104 11 -3 -5 3
-10 15 -10 24 0 84 -55 76 -69 -4 -6 -20 -5 -42 1 -46 12 -96 3 -126 -23 l-23
-20 28 5 c15 4 27 2 27 -3 0 -4 -17 -11 -38 -15 -35 -5 -68 0 -114 19 -27 11
-22 -11 10 -41 l27 -26 -25 6 c-97 23 -131 28 -137 22 -5 -4 0 -12 10 -17 9
-6 29 -21 44 -33 l28 -24 -35 -15 c-36 -15 -77 -53 -68 -62 3 -3 17 -1 32 5
15 5 39 10 54 10 l27 0 -30 -24 c-32 -26 -30 -45 3 -27 12 6 36 11 54 10 l33
0 -40 -15 c-21 -8 -63 -18 -92 -23 l-52 -8 -22 61 c-12 34 -25 104 -29 156 -4
52 -8 98 -9 102 -1 3 -28 32 -62 65 -72 68 -89 98 -89 152 0 30 5 43 20 51 11
6 20 19 20 29 0 10 6 24 14 30 8 6 19 25 26 41 10 24 19 30 44 30 39 0 105 30
133 61 72 79 32 154 -62 115 -21 -9 -39 -16 -41 -16 -2 0 -4 53 -4 118 0 135
-8 156 -67 166 -21 4 -66 18 -100 32 -93 36 -120 21 -200 -113 -20 -35 -40
-63 -43 -63 -3 0 -24 18 -45 41 -48 49 -76 62 -110 49 -20 -8 -25 -16 -25 -45
0 -52 35 -112 102 -176 64 -63 88 -119 50 -119 -11 0 -25 -7 -32 -15 -16 -19
-74 -13 -208 21 -51 13 -105 24 -120 24 -15 0 -97 -25 -182 -56 -144 -51 -155
-54 -167 -38 -7 10 -14 32 -14 48 -7 171 -6 181 16 211 50 67 57 92 54 196
l-3 100 85 85 c154 156 347 309 378 299 9 -2 75 -14 146 -25 444 -68 984 -68
1264 0 153 37 261 105 261 165 0 40 -61 117 -120 153 -209 124 -597 148 -925
56 -211 -59 -381 -138 -633 -296 -26 -16 -32 -16 -138 7 -314 66 -590 164
-734 260 -74 49 -100 86 -100 141 0 31 7 44 43 79 82 78 249 112 507 102 247
-10 473 -56 683 -141 106 -43 257 -123 257 -136 0 -3 -38 -21 -85 -40 -47 -18
-88 -37 -92 -43 -4 -6 0 -8 8 -4 107 46 178 71 274 98 63 18 113 34 111 36 -4
5 -135 -23 -169 -36 -23 -9 -31 -7 -53 14 -126 117 -438 230 -742 269 -113 15
-351 19 -442 9z m2013 -326 c125 -33 202 -69 249 -114 52 -51 65 -86 44 -118
-34 -52 -198 -109 -391 -137 -139 -20 -692 -17 -875 5 -154 19 -332 45 -337
51 -8 7 147 100 262 156 279 137 504 191 780 186 145 -3 185 -7 268 -29z
m-1865 -794 c-5 -24 -22 -19 -36 10 -18 38 -4 57 20 27 10 -13 18 -30 16 -37z
m52 -54 c0 -61 -5 -80 -31 -130 -34 -63 -71 -95 -97 -83 -9 4 -26 6 -36 5 -18
-3 -18 -1 -4 13 9 9 18 21 20 28 3 7 17 12 32 10 15 -1 28 4 30 11 2 6 7 21
12 32 4 11 8 23 8 27 1 4 11 16 23 27 17 16 20 28 16 60 -6 44 1 71 17 71 6 0
10 -29 10 -71z m-103 39 c15 -19 24 -76 13 -83 -6 -3 -15 5 -22 19 -6 14 -15
26 -20 26 -13 0 -9 -16 7 -30 23 -19 19 -43 -5 -35 -18 6 -20 3 -14 -19 8 -35
-12 -34 -53 3 -23 20 -29 31 -21 39 6 6 17 8 24 5 10 -4 14 3 14 21 0 19 5 26
20 26 13 0 20 7 20 20 0 22 22 27 37 8z m1104 -83 c10 -3 31 1 47 9 36 19 37
17 41 -98 2 -51 -1 -76 -8 -72 -6 4 -18 -8 -27 -26 -9 -18 -18 -34 -19 -36 -2
-2 -27 4 -58 13 l-54 16 -11 54 c-6 30 -9 63 -5 73 11 30 25 43 37 34 6 -5 22
-12 34 -15 22 -5 23 -4 8 12 -9 10 -13 21 -9 25 4 4 1 4 -8 1 -10 -4 -22 7
-37 34 -31 55 -27 60 14 18 21 -20 45 -39 55 -42z m-258 -70 c-3 -9 -8 -14
-10 -11 -3 3 -2 9 2 15 9 16 15 13 8 -4z m132 -7 c3 -13 7 -40 9 -61 3 -31 0
-37 -13 -35 -26 5 -36 118 -10 118 5 0 11 -10 14 -22z m-1075 2 c0 -5 -4 -10
-10 -10 -5 0 -10 5 -10 10 0 6 5 10 10 10 6 0 10 -4 10 -10z m990 -91 c0 -5
-4 -9 -10 -9 -5 0 -10 7 -10 16 0 8 5 12 10 9 6 -3 10 -10 10 -16z m-1048 -36
c-5 -10 -15 -43 -22 -73 -6 -30 -21 -86 -32 -124 -28 -97 -19 -191 23 -234 23
-24 40 -30 91 -36 35 -3 84 -13 109 -20 26 -8 73 -17 105 -21 33 -4 62 -9 66
-11 3 -2 0 -32 -9 -67 -8 -34 -12 -82 -10 -107 4 -37 1 -49 -20 -74 -21 -26
-24 -37 -19 -75 5 -36 2 -53 -14 -76 -26 -40 -25 -49 10 -100 l30 -44 -11 -78
c-7 -45 -21 -95 -35 -118 -12 -22 -26 -65 -29 -95 -14 -123 -13 -123 -43 -115
-15 3 -47 16 -70 27 -38 18 -49 19 -82 9 -52 -15 -104 -76 -121 -140 -7 -28
-16 -51 -19 -51 -18 0 -55 58 -112 175 l-63 130 0 110 c0 124 7 151 87 333 69
158 81 253 50 408 -26 130 -28 201 -6 275 23 78 49 125 96 169 43 42 65 52 50
23z m97 -3 c16 0 41 4 55 10 31 12 33 6 39 -127 4 -75 1 -99 -14 -134 -26 -56
-17 -61 17 -9 l28 43 15 -34 c12 -28 15 -31 19 -14 2 11 12 24 21 29 14 9 12
11 -9 16 -22 6 -17 9 35 25 33 10 100 33 148 51 49 19 98 34 109 34 18 0 19
-4 13 -37 -10 -57 -56 -190 -71 -210 -13 -16 -13 -15 -4 10 15 42 12 57 -10
57 -17 0 -20 7 -21 43 -1 35 -2 38 -8 17 -11 -33 -70 -150 -76 -150 -3 0 -1 9
5 19 14 27 13 28 -17 34 -16 3 -37 8 -49 12 -15 5 -23 1 -31 -17 -10 -19 -12
-20 -12 -5 -1 14 -6 17 -23 11 -13 -3 -32 -14 -42 -23 -18 -15 -19 -15 -12 4
23 58 20 61 -28 21 -49 -40 -65 -42 -46 -7 9 17 8 21 -4 21 -8 0 -18 -4 -21
-10 -9 -15 -25 -12 -25 5 0 19 -21 65 -31 65 -4 0 -12 -12 -17 -27 l-10 -28
-7 28 c-4 17 0 70 10 130 26 154 14 158 -28 10 -32 -111 -36 -140 -31 -188 9
-71 25 -89 73 -81 34 6 35 5 17 -9 -29 -22 1 -19 49 5 49 25 53 25 30 0 -10
-11 -16 -22 -14 -23 2 -2 32 -11 65 -20 43 -11 71 -14 92 -7 23 6 31 5 29 -3
-1 -7 17 -14 43 -18 42 -6 41 -6 -20 -7 -35 -1 -100 7 -145 17 -44 11 -101 23
-127 26 -73 9 -95 33 -103 109 -6 54 -2 85 26 197 37 151 43 163 69 149 10 -6
32 -10 49 -10z m1126 -30 c3 -5 0 -20 -7 -32 l-13 -23 -3 23 c-2 12 -8 20 -13
17 -5 -3 -6 1 -3 9 7 18 30 21 39 6z m135 -39 c0 -22 -16 -36 -24 -22 -8 12 3
41 15 41 5 0 9 -9 9 -19z m-703 -59 c12 -4 40 -24 62 -45 35 -33 39 -41 29
-57 -12 -18 -14 -17 -48 19 -19 21 -48 44 -64 52 -56 27 -40 49 21 31z m466
-11 c21 -14 25 -21 16 -27 -10 -6 -9 -9 4 -13 30 -11 2 -31 -50 -38 l-50 -5 1
37 c1 24 8 42 20 51 25 18 25 18 59 -5z m117 9 c18 -12 2 -12 -25 0 -13 6 -15
9 -5 9 8 0 22 -4 30 -9z m-310 -14 c0 -2 -7 -17 -15 -32 -16 -31 -22 -80 -6
-55 13 20 20 1 36 -96 14 -84 19 -182 8 -155 -11 27 -23 10 -23 -33 0 -25 -5
-45 -10 -45 -6 0 -8 -10 -5 -23 4 -14 -11 -66 -40 -141 -26 -65 -52 -140 -58
-167 -10 -41 -15 -48 -31 -43 -18 6 -18 5 -1 -24 17 -28 17 -31 -12 -118 -20
-60 -35 -88 -44 -87 -187 33 -227 48 -260 94 l-24 34 43 -33 c23 -19 42 -30
42 -25 -1 20 -73 105 -109 127 -38 24 -61 66 -61 109 0 13 15 -2 47 -44 72
-98 142 -161 232 -208 46 -24 85 -40 88 -37 3 3 -7 18 -22 33 -15 16 -41 46
-58 68 -29 39 -29 39 -23 10 l7 -30 -33 32 c-43 42 -93 125 -117 194 -36 105
-31 113 16 24 86 -161 109 -178 47 -33 -45 106 -84 240 -83 287 1 33 6 24 61
-87 33 -68 58 -126 54 -129 -3 -4 -13 2 -21 13 -38 50 8 -80 51 -146 15 -22
30 -40 34 -40 4 0 0 27 -9 60 -8 32 -12 62 -9 66 4 3 26 -10 49 -30 23 -20 44
-34 47 -31 2 2 -19 30 -48 62 -53 59 -110 159 -128 226 -6 20 -9 37 -6 37 2 0
12 -17 23 -37 24 -46 26 -36 6 37 -8 30 -15 86 -15 124 0 63 -1 67 -17 55 -15
-12 -16 -12 -9 6 5 11 23 62 40 113 20 59 36 92 45 92 8 0 39 -25 69 -56 49
-51 53 -58 48 -90 -8 -38 -3 -40 48 -19 32 14 39 14 66 0 16 -8 36 -15 45 -15
12 0 14 -4 5 -19 -18 -34 -11 -47 9 -17 18 26 20 27 30 10 17 -31 13 5 -6 53
-13 31 -22 41 -33 37 -8 -3 -35 -9 -60 -14 -25 -5 -53 -12 -62 -15 -33 -13
-19 7 64 91 71 73 98 95 98 80z m-107 -23 c-7 -2 -21 -2 -30 0 -10 3 -4 5 12
5 17 0 24 -2 18 -5z m382 -25 c-9 -40 -11 -42 -25 -33 -13 8 -10 47 5 57 20
15 26 7 20 -24z m-190 -47 c3 -11 16 -18 33 -19 15 0 47 -5 72 -10 41 -9 42
-10 13 -11 -23 -1 -33 -6 -33 -17 0 -12 6 -15 24 -10 26 6 52 -15 41 -34 -11
-18 -40 -11 -89 21 -40 27 -96 94 -96 115 0 12 29 -18 35 -35z m255 32 c-1
-15 -30 -46 -37 -40 -3 4 2 16 12 27 19 21 25 24 25 13z m-123 -29 c-3 -3 -12
-4 -19 -1 -8 3 -5 6 6 6 11 1 17 -2 13 -5z m71 -206 c6 -29 14 -64 18 -77 11
-37 -12 -17 -36 30 -12 22 -28 39 -38 39 -14 1 -14 4 6 19 12 11 22 24 22 30
0 6 4 11 9 11 5 0 14 -24 19 -52z m872 36 c0 -8 -19 -13 -24 -6 -3 5 1 9 9 9
8 0 15 -2 15 -3z m-67 -68 c-10 -13 -20 -22 -22 -20 -4 4 29 44 36 44 2 0 -4
-11 -14 -24z m-916 -15 c1 -14 -13 -28 -45 -47 -58 -33 -99 -70 -118 -106 -21
-40 -17 -42 16 -6 l29 33 -5 -40 -4 -40 18 49 c18 48 27 58 65 70 10 3 15 10
12 16 -3 5 -2 10 3 10 5 0 21 11 35 25 l25 26 26 -32 c14 -17 26 -37 26 -44 0
-10 13 -13 43 -13 83 2 90 0 83 -25 -13 -55 -87 -166 -170 -256 -48 -53 -93
-106 -99 -118 -8 -18 -13 -20 -24 -12 -10 9 -13 6 -13 -13 0 -14 5 -40 11 -57
15 -44 -3 -111 -30 -111 -15 0 -18 5 -14 23 l5 22 -16 -22 c-22 -29 -92 -33
-99 -5 -3 14 -6 12 -17 -11 -13 -26 -14 -26 -37 -12 -13 9 -28 13 -33 10 -16
-10 -12 14 14 95 14 41 29 107 35 145 10 67 67 228 110 313 11 22 33 50 48 61
15 12 48 37 73 56 25 18 45 34 45 34 1 1 1 -8 2 -18z m1128 -1 c3 -6 -1 -7 -9
-4 -18 7 -21 14 -7 14 6 0 13 -4 16 -10z m-162 -23 c3 -8 -1 -14 -8 -14 -7 0
-11 6 -8 14 3 7 6 13 8 13 2 0 5 -6 8 -13z m-748 -55 c-28 -6 -49 6 -36 21 8
10 7 17 -2 28 -6 7 3 0 21 -16 26 -23 30 -31 17 -33z m663 38 c-7 -11 -15 -20
-18 -20 -3 0 -7 -12 -8 -27 -3 -34 -10 -41 -18 -18 -4 9 -3 20 2 24 5 3 10 13
12 21 5 19 22 40 33 40 5 0 4 -9 -3 -20z m-778 -20 c6 -11 8 -20 6 -20 -3 0
-10 9 -16 20 -6 11 -8 20 -6 20 3 0 10 -9 16 -20z m-852 -102 c0 -40 8 -83 21
-118 26 -68 26 -73 0 -32 -24 37 -33 39 -52 12 -14 -20 -10 -74 9 -125 7 -18
6 -18 -9 -6 -15 12 -18 10 -27 -13 -7 -20 -6 -36 5 -61 18 -45 12 -44 -15 0
l-22 35 22 36 c18 28 21 44 16 81 -5 39 -2 49 19 75 22 26 25 37 19 73 -5 38
2 105 11 105 2 0 3 -28 3 -62z m1000 -64 c-4 -96 -2 -111 8 -92 l12 23 10 -25
c18 -48 22 -79 12 -85 -18 -11 -49 5 -53 28 -3 21 -4 21 -15 -4 -6 -15 -14
-44 -18 -64 -6 -35 -5 -38 15 -32 11 3 21 2 21 -2 0 -13 -24 -31 -42 -31 -10
0 -18 -4 -18 -10 0 -5 -5 -10 -11 -10 -12 0 -11 19 6 135 l6 40 -16 -27 c-20
-36 -26 -35 -18 2 5 25 3 29 -11 24 -25 -10 -20 39 7 73 13 15 38 61 57 100
19 40 39 73 44 73 5 0 7 -52 4 -116z m539 -21 c-3 -10 -5 -4 -5 12 0 17 2 24
5 18 2 -7 2 -21 0 -30z m278 7 c3 0 3 6 -1 13 -4 6 11 -6 33 -28 46 -46 37
-62 -25 -49 -20 4 -43 6 -51 5 -11 -2 -11 0 0 12 9 10 18 12 24 6 5 -5 14 -9
20 -9 14 1 -37 40 -52 40 -7 0 -13 4 -13 9 0 14 23 19 42 10 9 -5 19 -9 23 -9z
m-35 -24 c0 -3 -4 -8 -10 -11 -5 -3 -10 -1 -10 4 0 6 5 11 10 11 6 0 10 -2 10
-4z m197 -41 c50 -21 73 -43 73 -70 0 -14 22 -46 55 -81 30 -33 55 -62 55 -66
0 -19 -43 -5 -69 21 -16 16 -32 27 -37 23 -4 -4 -4 -2 -1 4 7 13 -16 38 -26
28 -7 -7 -47 32 -47 46 0 6 -5 10 -12 10 -6 0 -5 7 5 18 13 14 14 21 5 30 -7
7 -18 12 -26 12 -7 0 -11 4 -7 9 3 6 -3 14 -12 20 -28 16 3 13 44 -4z m-387
-30 c0 -8 -6 -15 -14 -15 -17 0 -28 14 -19 24 12 12 33 6 33 -9z m-73 -27 c-3
-7 -5 -2 -5 12 0 14 2 19 5 13 2 -7 2 -19 0 -25z m318 -28 c3 -5 2 -10 -4 -10
-5 0 -13 5 -16 10 -3 6 -2 10 4 10 5 0 13 -4 16 -10z m44 -26 c-6 -8 -17 -14
-23 -13 -7 0 -6 2 2 6 6 2 12 11 12 19 0 9 5 12 10 9 8 -5 7 -11 -1 -21z m91
-5 c0 -5 -4 -9 -10 -9 -5 0 -10 7 -10 16 0 8 5 12 10 9 6 -3 10 -10 10 -16z
m-33 4 c-4 -3 3 -13 14 -21 18 -12 23 -13 31 -1 7 11 8 9 4 -5 -4 -11 -1 -23
6 -27 10 -6 10 -11 1 -20 -9 -9 -19 -5 -43 20 -35 35 -40 37 -40 17 0 -8 23
-38 52 -67 29 -29 46 -55 40 -57 -7 -2 -12 -8 -12 -13 0 -6 5 -7 10 -4 6 3 10
-1 10 -10 0 -8 -7 -18 -16 -22 -8 -3 -13 -12 -10 -19 3 -9 -1 -14 -13 -14 -26
0 -22 28 5 34 l24 6 -28 39 c-15 21 -40 44 -57 51 -17 6 -25 14 -17 17 6 2 12
9 12 15 0 6 -7 8 -15 4 -9 -3 -15 0 -15 8 0 8 -3 23 -6 33 -5 15 -4 16 5 3 10
-13 12 -13 20 0 7 9 6 17 -1 21 -7 4 -1 9 13 12 13 2 26 5 28 6 2 0 1 -2 -2
-6z m-257 -49 c19 -25 72 -81 117 -124 45 -44 78 -82 74 -85 -10 -5 -241 230
-241 245 0 20 16 8 50 -36z m-868 -15 c6 -22 22 -50 35 -62 24 -23 29 -37 13
-37 -5 0 -17 11 -25 24 -22 34 -58 129 -46 121 6 -3 16 -24 23 -46z m-36 14
c4 -16 18 -50 31 -77 l24 -48 -23 -26 -23 -25 22 5 c12 3 27 0 33 -7 14 -17
-48 -29 -84 -15 -34 13 -34 -3 1 -30 29 -22 28 -23 -18 -50 -9 -5 -22 -23 -27
-40 -13 -34 -3 -38 38 -15 36 21 43 18 25 -8 -14 -22 -54 -47 -74 -47 -20 0
-31 58 -25 130 3 41 7 98 8 125 3 70 3 67 36 113 35 49 47 52 56 15z m-726
-95 c0 -26 -26 -22 -49 8 -30 38 -26 52 5 23 l27 -24 -7 30 -6 30 15 -25 c8
-14 14 -33 15 -42z m1553 42 c-3 -11 -9 -20 -14 -20 -11 0 -11 3 -3 24 9 23
23 20 17 -4z m433 -2 l19 -23 -25 20 c-14 11 -27 21 -29 22 -2 2 0 3 6 3 5 0
18 -10 29 -22z m-376 -39 c28 -35 31 -45 21 -60 -6 -11 -7 -19 -2 -19 6 0 13
5 16 10 4 6 11 7 17 4 7 -4 6 -9 -2 -14 -8 -5 -3 -10 14 -14 14 -3 26 -13 26
-20 0 -8 8 -17 18 -19 9 -3 3 -5 -14 -6 -19 -1 -45 10 -72 30 -23 17 -42 33
-42 35 0 3 5 2 10 -1 15 -9 12 7 -5 29 -8 11 -18 17 -21 13 -4 -4 -13 1 -20
11 -17 22 -17 29 0 29 8 0 12 -6 8 -15 -3 -10 -1 -13 6 -8 7 4 12 16 12 27 0
11 -4 17 -10 14 -5 -3 -10 -1 -10 4 0 21 17 11 50 -30z m552 7 c16 -12 16 -14
-8 -25 -19 -8 -24 -8 -18 0 5 9 -4 10 -32 6 -36 -6 -38 -5 -19 9 11 8 25 12
33 9 7 -2 10 0 7 5 -9 14 17 12 37 -4z m93 -86 c11 -10 34 -25 50 -34 31 -17
22 -16 -53 5 -30 9 -47 20 -53 36 -5 13 -14 23 -20 23 -8 0 -8 -4 1 -15 9 -11
9 -15 1 -15 -8 0 -8 -4 1 -14 7 -8 16 -12 21 -9 4 2 7 0 7 -6 0 -6 7 -8 15 -5
8 4 15 1 15 -5 0 -6 -6 -11 -14 -11 -19 0 -67 40 -61 50 3 5 -1 10 -7 13 -9 3
-7 9 7 20 18 14 22 14 45 0 14 -9 34 -24 45 -33z m-2205 20 c13 -8 13 -10 -2
-10 -9 0 -20 5 -23 10 -8 13 5 13 25 0z m1837 -15 c0 -8 -4 -12 -9 -9 -5 3 -6
10 -3 15 9 13 12 11 12 -6z m-1870 -57 c-3 -7 -5 -2 -5 12 0 14 2 19 5 13 2
-7 2 -19 0 -25z m225 13 c4 -4 3 -22 -2 -41 -6 -19 -10 -52 -10 -73 0 -35 2
-37 24 -31 37 9 96 -23 96 -51 0 -19 -4 -22 -22 -18 -20 4 -21 3 -6 -7 34 -21
40 -47 16 -70 -23 -21 -44 -27 -33 -10 3 6 1 10 -5 10 -7 0 -10 6 -7 13 2 6 0
20 -5 30 -11 21 -127 107 -144 107 -26 0 -67 21 -58 30 13 12 104 -10 104 -26
0 -7 5 -16 12 -20 7 -4 8 -3 4 4 -4 6 -2 20 3 30 5 10 13 42 17 70 6 51 6 52
-19 52 -14 0 -29 4 -32 10 -6 11 54 2 67 -9z m1848 -1 c1 11 4 10 15 -4 8 -11
15 -25 14 -30 0 -6 -3 -5 -6 2 -2 6 -13 12 -24 12 -11 0 -19 7 -19 18 0 14 2
15 10 2 9 -13 10 -13 10 0z m-1047 -65 c-9 -19 -18 -33 -21 -31 -4 5 26 66 33
66 3 0 -3 -16 -12 -35z m-530 18 c-7 -2 -21 -2 -30 0 -10 3 -4 5 12 5 17 0 24
-2 18 -5z m-67 -18 c19 -14 18 -14 -3 -15 -27 0 -30 -18 -5 -36 16 -11 15 -13
-11 -23 -16 -6 -34 -11 -41 -11 -20 0 -66 40 -66 57 0 39 86 58 126 28z m1492
6 c8 -4 12 -19 10 -32 -2 -18 -9 -24 -27 -24 -13 0 -25 6 -27 13 -1 7 0 8 3 2
6 -13 33 -13 33 0 0 6 -4 10 -10 10 -5 0 -10 9 -10 20 0 22 7 25 28 11z m-626
-40 c-28 -38 -46 -112 -26 -104 18 7 17 3 -2 -76 -21 -84 -28 -91 -58 -58 -25
27 -27 39 -9 72 5 11 14 34 18 50 7 29 7 29 16 8 12 -32 16 -29 14 15 -1 33
19 85 47 120 21 25 21 1 0 -27z m1048 -51 c0 -41 -5 -55 -27 -78 -16 -15 -21
-19 -12 -7 29 36 30 45 17 81 -10 30 -10 37 2 44 8 6 16 10 18 10 1 0 2 -22 2
-50z m-2365 20 c-27 -12 -43 -12 -25 0 8 5 22 9 30 9 10 0 8 -3 -5 -9z m2113
-27 c3 -28 -1 -33 -23 -39 -29 -7 -55 10 -55 35 0 25 22 42 50 39 20 -2 26 -9
28 -35z m202 7 c0 -5 -2 -10 -4 -10 -3 0 -8 5 -11 10 -3 6 -1 10 4 10 6 0 11
-4 11 -10z m-2153 -22 c-3 -8 -6 -5 -6 6 -1 11 2 17 5 13 3 -3 4 -12 1 -19z
m453 7 c0 -8 -7 -15 -15 -15 -9 0 -12 6 -9 15 4 8 10 15 15 15 5 0 9 -7 9 -15z
m371 -22 c-12 -20 -14 -14 -5 12 4 9 9 14 11 11 3 -2 0 -13 -6 -23z m-855 1
c10 -8 13 -12 6 -9 -8 4 -26 11 -40 15 -22 7 -23 8 -6 9 11 1 29 -6 40 -15z
m312 -24 c-35 -42 -48 -49 -48 -26 0 15 55 66 71 66 6 0 -5 -18 -23 -40z
m-216 -69 c26 -23 50 -50 53 -61 3 -10 -1 -70 -10 -132 -9 -62 -18 -180 -21
-262 -4 -125 -8 -154 -24 -176 -20 -29 -50 -56 -50 -47 0 12 25 62 35 69 5 4
7 9 5 12 -3 2 -21 -10 -40 -27 -19 -17 -27 -28 -18 -24 12 4 15 2 12 -8 -8
-21 -33 -6 -40 24 -4 14 -10 31 -14 36 -5 6 -7 55 -7 111 2 81 5 104 20 118
26 26 21 30 -9 7 -15 -12 -37 -21 -50 -21 -23 0 -24 3 -24 66 0 36 -3 63 -7
61 -6 -4 -8 113 -4 213 1 8 12 27 26 42 30 33 32 42 5 35 -13 -3 -18 -1 -13 5
4 8 -4 9 -25 5 -18 -4 -32 -2 -32 3 0 5 18 13 40 16 22 4 43 10 45 14 8 13 97
-35 147 -79z m-47 79 c-3 -5 -12 -10 -18 -10 -7 0 -6 4 3 10 19 12 23 12 15 0z
m1788 -6 c15 -3 27 -9 27 -13 0 -4 -19 -43 -42 -86 -49 -89 -93 -127 -175
-151 -29 -9 -57 -14 -62 -12 -4 2 -38 41 -76 87 l-67 84 20 36 c19 33 25 37
79 43 32 3 74 11 93 17 33 9 140 7 203 -5z m207 -9 c0 -8 -2 -15 -4 -15 -2 0
-6 7 -10 15 -3 8 -1 15 4 15 6 0 10 -7 10 -15z m-1597 -29 c-18 -24 -45 -37
-91 -42 -21 -3 -20 -1 7 21 29 25 66 43 89 44 9 1 8 -6 -5 -23z m814 -8 c-3
-7 -5 -2 -5 12 0 14 2 19 5 13 2 -7 2 -19 0 -25z m-942 2 c-3 -5 -12 -10 -18
-10 -7 0 -6 4 3 10 19 12 23 12 15 0z m1620 -20 c4 -16 16 -36 27 -44 18 -13
20 -21 13 -88 -14 -154 -38 -209 -106 -247 -45 -26 -91 -26 -144 -2 -41 18
-125 103 -125 126 0 7 17 16 38 20 95 17 172 85 231 203 34 68 56 78 66 32z
m-2025 4 c0 -2 -7 -4 -15 -4 -8 0 -15 4 -15 10 0 5 7 7 15 4 8 -4 15 -8 15
-10z m1327 -41 c-11 -34 -12 -35 -18 -12 l-6 24 -6 -25 -5 -25 1 25 c1 14 6
23 10 20 5 -3 13 3 18 13 16 27 18 20 6 -20z m-1759 0 c-41 -46 -62 -108 -64
-183 -3 -95 -4 -99 -14 -75 -20 48 -5 195 21 195 5 0 9 6 9 13 0 7 11 25 25
40 28 29 48 38 23 10z m982 14 c0 -2 -12 -14 -26 -28 l-27 -24 18 28 c14 22
35 36 35 24z m-817 -26 c15 -6 27 -17 27 -25 0 -18 -74 -10 -107 12 -13 8 -30
11 -39 8 -15 -6 -15 -4 -3 10 14 17 69 15 122 -5z m1738 -58 c-28 -73 -32 -80
-26 -52 5 30 33 99 40 99 3 0 -4 -21 -14 -47z m98 -35 l43 -53 -62 -3 c-35 -2
-67 1 -71 5 -11 11 21 103 35 103 7 0 32 -24 55 -52z m-423 26 c-4 -11 -2 -15
8 -11 7 3 23 -1 34 -9 19 -13 20 -21 15 -83 -4 -46 -2 -70 6 -75 7 -5 11 3 12
21 1 15 3 21 5 13 3 -9 0 -33 -5 -55 -6 -25 -9 -31 -10 -17 -1 13 -5 21 -11
17 -5 -3 -7 -11 -5 -18 9 -29 14 -111 5 -97 -5 8 -6 18 -4 22 3 4 0 8 -6 8 -7
0 -9 -8 -5 -22 6 -16 4 -20 -8 -15 -10 4 -16 -2 -20 -21 -3 -15 -1 -29 4 -30
11 -4 2 -22 -11 -22 -11 0 -2 72 10 84 9 9 -14 53 -35 68 -6 5 -5 8 4 8 8 0
11 6 7 16 -3 8 -2 23 3 32 4 9 11 44 14 77 4 38 3 53 -3 40 l-9 -20 -1 20 c-1
11 -3 31 -5 45 -3 25 2 40 12 40 3 0 2 -7 -1 -16z m161 -3 c1 -18 -1 -19 -22
-9 -26 12 -24 28 3 28 10 0 18 -8 19 -19z m-844 -28 c-6 -16 -5 -17 12 -3 18
14 17 12 -2 -20 -11 -19 -42 -76 -68 -127 -38 -75 -49 -90 -60 -80 -7 7 -10
17 -5 22 4 6 27 48 51 95 44 88 69 130 75 130 2 0 0 -8 -3 -17z m217 -23 c-18
-16 -38 -30 -43 -30 -5 0 4 14 20 30 15 17 34 30 42 30 8 0 0 -13 -19 -30z
m1407 -2 c-3 -7 -5 -2 -5 12 0 14 2 19 5 13 2 -7 2 -19 0 -25z m-2163 4 c3 -5
-1 -9 -9 -9 -8 0 -12 4 -9 9 3 4 7 8 9 8 2 0 6 -4 9 -8z m1366 -51 c-1 -14 -2
-14 -14 2 -7 9 -18 17 -25 17 -6 0 -11 4 -11 10 0 6 10 5 25 -2 14 -6 25 -18
25 -27z m-151 -23 c0 -18 -3 -27 -6 -20 -2 6 -10 9 -15 6 -6 -4 -9 -3 -6 2 3
5 8 17 11 27 10 27 17 20 16 -15z m144 -2 c3 3 3 -4 0 -17 -6 -21 -7 -22 -13
-3 -5 14 -11 2 -23 -46 -15 -61 -15 -50 0 44 4 28 3 37 -5 32 -7 -4 -12 0 -12
10 0 15 3 15 23 -4 13 -12 26 -19 30 -16z m142 -23 c-8 -32 -13 -39 -21 -30
-4 4 -1 13 5 21 7 8 10 20 6 26 -3 5 -1 10 5 10 8 0 10 -9 5 -27z m-315 -73
l-11 -25 6 25 c2 14 5 36 6 50 l2 25 4 -25 c2 -14 -1 -37 -7 -50z m585 44 c9
-15 12 -23 6 -20 -11 7 -35 46 -28 46 3 0 12 -12 22 -26z m-1750 -11 c3 -10 8
-47 11 -83 5 -62 4 -64 -10 -40 -22 36 -38 98 -31 120 8 25 21 26 30 3z m32
-25 c-3 -8 -6 -5 -6 6 -1 11 2 17 5 13 3 -3 4 -12 1 -19z m1431 -13 c-3 -3 -9
2 -12 12 -6 14 -5 15 5 6 7 -7 10 -15 7 -18z m-147 -40 c-8 -46 -9 -47 -10
-13 -1 34 8 73 15 66 2 -2 -1 -26 -5 -53z m-1801 42 c0 -2 -12 -14 -27 -28
l-28 -24 24 28 c23 25 31 32 31 24z m955 -72 c-4 -37 -9 -65 -11 -62 -3 2 -2
34 2 71 4 37 9 64 12 62 2 -3 1 -35 -3 -71z m-800 39 c28 -8 73 -17 100 -20
61 -7 77 -18 18 -12 -41 3 -57 -5 -30 -15 6 -3 2 -6 -10 -6 -13 -1 -23 2 -23
7 0 4 -10 8 -23 8 -35 2 -99 33 -92 44 8 12 0 13 60 -6z m1772 -26 c-3 -7 -5
-2 -5 12 0 14 2 19 5 13 2 -7 2 -19 0 -25z m-247 2 c9 -16 8 -18 -5 -14 -10 4
-15 0 -15 -12 0 -9 -2 -15 -5 -12 -6 6 4 58 11 58 2 0 8 -9 14 -20z m94 -37
c-3 -42 -1 -51 5 -33 8 21 9 22 10 5 0 -11 -3 -26 -8 -34 -7 -11 -10 -10 -15
5 -13 45 -8 114 9 114 2 0 2 -26 -1 -57z m173 35 c-3 -8 -6 -5 -6 6 -1 11 2
17 5 13 3 -3 4 -12 1 -19z m-2036 -50 c-38 -49 -81 -143 -81 -174 0 -8 24 -26
53 -39 28 -14 45 -25 37 -25 -8 0 -34 9 -57 20 -51 23 -53 36 -18 121 24 59
82 148 97 149 4 0 -10 -23 -31 -52z m69 48 c0 -2 -8 -10 -17 -17 -16 -13 -17
-12 -4 4 13 16 21 21 21 13z m-630 -41 c115 -39 108 -35 86 -47 -13 -7 -20 -7
-25 0 -3 6 -20 13 -36 17 l-30 6 30 -15 c45 -22 20 -19 -28 3 -26 12 -71 21
-115 23 -39 2 -72 7 -72 12 0 5 -19 6 -42 2 -50 -8 -199 -86 -191 -100 4 -5 0
-7 -8 -4 -8 3 -23 2 -34 -2 -19 -7 -19 -7 4 -19 15 -8 21 -9 17 -2 -4 6 0 11
11 11 10 0 33 9 52 21 18 11 35 18 37 16 2 -2 -17 -23 -41 -47 -25 -24 -45
-50 -45 -57 0 -7 -7 -10 -15 -6 -10 3 -15 0 -13 -8 2 -8 -2 -13 -9 -12 -6 2
-22 -20 -34 -47 -12 -27 -27 -48 -32 -47 -6 1 -33 -28 -61 -65 -60 -80 -100
-122 -90 -95 3 9 10 17 16 17 5 0 6 6 2 13 -4 6 -4 9 1 5 4 -4 21 21 37 55 16
34 39 72 50 85 35 36 2 25 -37 -13 -41 -42 -44 -41 -10 5 13 18 22 37 19 41
-3 5 2 9 10 9 9 0 16 6 16 14 0 21 27 40 33 24 3 -8 6 -6 6 5 1 10 5 16 10 13
5 -3 15 2 22 11 12 14 12 16 0 8 -10 -6 -12 -4 -7 4 5 7 15 10 23 7 8 -3 11
-2 8 3 -3 5 3 11 12 13 16 3 15 6 -5 17 -20 11 -29 9 -65 -13 -23 -13 -52 -34
-64 -46 -29 -26 -29 -16 -2 25 26 37 70 67 124 85 22 7 71 28 108 47 139 69
236 77 377 28z m303 23 c-21 -10 -22 -12 -5 -25 15 -13 14 -14 -10 -9 -21 5
-26 3 -22 -8 4 -10 -8 -22 -38 -37 -24 -12 -46 -26 -49 -31 -3 -5 -10 -10 -15
-11 -5 -1 -8 -5 -7 -9 2 -4 -5 -4 -14 -1 -11 4 -14 3 -9 -5 4 -6 -2 -17 -14
-24 -11 -7 -20 -18 -20 -24 0 -6 -9 -19 -20 -29 -18 -17 -20 -17 -14 -2 3 9
10 17 15 17 5 0 9 6 9 13 0 6 -13 -2 -29 -19 -28 -31 -44 -33 -53 -5 -3 12 -6
12 -11 -2 -4 -10 -2 -17 5 -17 7 0 6 -5 -2 -15 -6 -8 -10 -20 -7 -27 4 -8 8
-5 12 10 4 12 12 22 17 22 6 0 7 -8 4 -17 -6 -14 -3 -14 15 3 12 11 3 -10 -22
-48 -44 -67 -59 -80 -59 -53 0 8 5 15 11 15 6 0 8 9 4 20 -3 11 -2 20 2 20 5
0 9 15 9 34 0 24 -4 32 -14 29 -7 -3 -11 -12 -8 -20 3 -8 -1 -24 -9 -36 -15
-21 -15 -21 -9 13 3 19 14 42 23 50 9 8 20 24 24 34 4 10 10 16 13 13 3 -3 19
10 36 29 17 19 35 31 42 27 6 -3 8 -3 4 1 -8 10 14 36 25 29 4 -2 7 1 7 7 0 6
5 8 10 5 6 -3 10 -2 10 2 0 14 56 43 84 43 16 0 26 6 26 14 0 8 12 19 28 24
36 14 53 13 25 0z m1182 2 c-3 -5 -11 -10 -16 -10 -6 0 -7 5 -4 10 3 6 11 10
16 10 6 0 7 -4 4 -10z m840 -50 c-4 -17 -9 -29 -12 -26 -3 2 -2 19 2 36 4 17
9 29 12 26 3 -2 2 -19 -2 -36z m265 33 c0 -5 -5 -15 -10 -23 -8 -12 -10 -11
-10 8 0 12 5 22 10 22 6 0 10 -3 10 -7z m-1990 -7 c0 -2 -8 -10 -17 -17 -16
-13 -17 -12 -4 4 13 16 21 21 21 13z m-817 -13 c4 -4 -7 -13 -24 -20 -18 -7
-34 -11 -36 -9 -3 2 5 7 16 11 12 3 21 11 21 16 0 11 14 12 23 2z m2066 -96
c2 -6 -9 -1 -25 11 -38 27 -94 79 -94 87 0 9 114 -85 119 -98z m-1020 34 c1
-35 -5 -22 -12 24 -5 28 -4 34 3 20 5 -11 9 -31 9 -44z m371 55 c0 -2 -9 -6
-20 -9 -11 -3 -20 -1 -20 4 0 5 9 9 20 9 11 0 20 -2 20 -4z m-1233 -22 c-3 -3
-12 -4 -19 -1 -8 3 -5 6 6 6 11 1 17 -2 13 -5z m578 -45 c-15 -28 -24 -56 -22
-62 2 -7 12 4 22 23 37 73 51 83 113 86 77 4 132 -25 150 -80 10 -33 10 -42
-3 -62 -26 -40 -72 -57 -134 -51 -76 8 -161 35 -168 52 -5 14 50 145 62 145 3
0 -6 -23 -20 -51z m-658 35 c-3 -3 -12 -4 -19 -1 -8 3 -5 6 6 6 11 1 17 -2 13
-5z m1330 -16 c-3 -8 -6 -5 -6 6 -1 11 2 17 5 13 3 -3 4 -12 1 -19z m363 -23
c-16 -47 -23 -40 -8 8 6 20 13 35 16 33 2 -3 -1 -21 -8 -41z m1010 35 c0 -5
-2 -10 -4 -10 -3 0 -8 5 -11 10 -3 6 -1 10 4 10 6 0 11 -4 11 -10z m-1081 -53
c-5 -20 -14 -37 -19 -37 -4 0 -1 18 7 40 20 49 26 47 12 -3z m-317 -29 c-3
-46 -10 -63 -36 -94 -33 -38 -58 -40 -49 -4 3 10 12 25 19 31 12 10 12 15 -3
31 -16 18 -15 21 27 57 25 22 45 38 45 37 1 0 -1 -27 -3 -58z m1015 40 c-3 -8
-6 -5 -6 6 -1 11 2 17 5 13 3 -3 4 -12 1 -19z m-1325 -72 l33 -27 -32 15 c-33
16 -54 43 -52 68 0 7 4 3 9 -8 4 -12 23 -33 42 -48z m1708 44 c0 -11 -4 -20
-9 -20 -7 0 -8 17 -2 38 4 10 11 -2 11 -18z m-1050 -55 c-36 -59 -95 -95 -192
-119 -17 -4 -28 -2 -28 4 0 5 7 10 15 10 60 0 195 84 210 132 4 11 9 17 12 14
3 -3 -5 -21 -17 -41z m593 -84 c49 -30 47 -35 -7 -11 -50 21 -68 15 -34 -13
30 -24 23 -21 -104 43 -67 34 -107 61 -107 70 0 10 2 11 6 2 6 -16 163 -93
174 -86 15 9 2 20 -63 54 -35 18 -70 39 -78 47 -15 15 141 -63 213 -106z m97
93 c0 -8 -4 -12 -10 -9 -5 3 -10 13 -10 21 0 8 5 12 10 9 6 -3 10 -13 10 -21z
m-1130 6 c0 -5 -2 -10 -4 -10 -3 0 -8 5 -11 10 -3 6 -1 10 4 10 6 0 11 -4 11
-10z m-1497 -15 c-3 -9 -8 -14 -10 -11 -3 3 -2 9 2 15 9 16 15 13 8 -4z m1482
-4 c5 -9 -83 -91 -98 -91 -13 0 3 43 23 62 10 9 21 14 26 10 4 -4 5 0 2 8 -4
11 1 16 18 18 12 1 26 -2 29 -7z m-278 -47 c-15 -13 -35 -24 -44 -24 -19 0
-15 5 29 35 42 29 52 21 15 -11z m446 30 c4 -4 -3 -15 -14 -25 -12 -10 -18
-23 -14 -30 5 -7 3 -10 -6 -7 -7 2 -25 -7 -39 -21 -14 -14 -38 -35 -54 -46
-15 -11 -53 -44 -84 -72 -31 -29 -60 -53 -65 -53 -5 0 16 28 47 63 31 34 56
67 56 73 0 7 7 15 16 18 8 3 12 10 9 16 -3 6 0 7 9 4 10 -4 33 11 63 40 47 44
63 53 76 40z m221 -5 c-8 -14 -83 -49 -104 -49 -8 0 10 13 40 29 61 32 75 36
64 20z m-1204 -14 c0 -8 -4 -15 -10 -15 -5 0 -10 7 -10 15 0 8 5 15 10 15 6 0
10 -7 10 -15z m36 -10 c-3 -9 -10 -13 -16 -10 -6 4 -5 11 3 20 15 16 22 11 13
-10z m1938 9 c3 -8 2 -12 -4 -9 -6 3 -10 10 -10 16 0 14 7 11 14 -7z m-2010
-20 c3 -8 2 -12 -3 -9 -6 3 -14 -3 -20 -12 -8 -15 -10 -15 -11 -2 0 12 18 39
26 39 1 0 5 -7 8 -16z m2383 -6 c-3 -8 -6 -5 -6 6 -1 11 2 17 5 13 3 -3 4 -12
1 -19z m-1970 -14 c-3 -3 -12 -4 -19 -1 -8 3 -5 6 6 6 11 1 17 -2 13 -5z
m-725 -40 c-9 -16 -10 -14 -9 8 1 15 6 23 11 18 4 -4 4 -16 -2 -26z m775 30
c-3 -3 -12 -4 -19 -1 -8 3 -5 6 6 6 11 1 17 -2 13 -5z m380 -7 c0 -7 -12 -18
-25 -25 l-25 -12 23 25 c27 29 27 29 27 12z m-885 -29 c-9 -9 -12 -7 -12 12 0
19 3 21 12 12 9 -9 9 -15 0 -24z m545 26 c-3 -3 -12 -4 -19 -1 -8 3 -5 6 6 6
11 1 17 -2 13 -5z m474 -21 c-12 -20 -14 -14 -5 12 4 9 9 14 11 11 3 -2 0 -13
-6 -23z m-408 10 c-7 -2 -21 -2 -30 0 -10 3 -4 5 12 5 17 0 24 -2 18 -5z
m-922 -58 c-11 -20 -17 -43 -14 -51 3 -8 0 -14 -6 -14 -6 0 -11 5 -11 12 0 16
41 100 47 95 2 -3 -5 -22 -16 -42z m-420 1 c-11 -27 -21 -36 -17 -13 5 21 18
48 23 44 2 -2 -1 -16 -6 -31z m714 25 c3 -5 1 -12 -5 -16 -5 -3 -10 1 -10 9 0
18 6 21 15 7z m885 5 c0 -2 -8 -10 -17 -17 -16 -13 -17 -12 -4 4 13 16 21 21
21 13z m239 -114 c-52 -60 -139 -162 -194 -227 -146 -173 -153 -181 -161 -173
-14 15 12 48 191 244 99 108 196 214 215 235 19 21 36 36 38 34 2 -2 -38 -53
-89 -113z m-99 73 c0 -8 -20 -61 -46 -117 -49 -112 -97 -176 -118 -159 -7 6
-16 7 -20 3 -11 -10 -56 -10 -56 1 0 5 -11 6 -25 3 -36 -9 -23 12 36 57 27 21
49 43 49 48 0 11 -3 9 -65 -30 -124 -79 -240 -149 -244 -146 -2 2 9 15 23 28
19 18 23 27 14 30 -8 4 -7 6 4 6 10 1 25 12 34 26 9 14 20 22 26 19 13 -8 39
16 31 29 -3 5 -1 7 5 4 16 -11 44 4 38 20 -3 8 -2 12 3 8 14 -8 41 5 41 21 0
7 6 11 13 9 6 -3 29 11 50 31 20 19 37 32 37 29 0 -4 18 10 39 31 21 22 37 43
34 48 -3 4 4 5 15 2 11 -4 23 -2 27 4 10 16 55 12 55 -5z m1330 -36 c-21 -17
-29 -29 -20 -29 9 0 5 -6 -10 -15 -33 -19 -50 -19 -50 1 0 10 5 14 16 10 8 -3
12 -2 9 3 -3 5 3 12 13 15 10 4 29 17 42 31 13 14 26 22 29 19 3 -3 -10 -19
-29 -35z m-200 12 c0 -13 -29 -8 -34 5 -3 7 2 10 15 7 10 -3 19 -9 19 -12z
m116 -7 c17 -14 17 -15 1 -10 -10 3 -28 6 -40 6 -18 0 -19 2 -7 10 20 13 23
13 46 -6z m-141 -24 c3 -5 1 -10 -4 -10 -6 0 -11 5 -11 10 0 6 2 10 4 10 3 0
8 -4 11 -10z m76 -7 c13 -16 12 -17 -3 -4 -17 13 -22 21 -14 21 2 0 10 -8 17
-17z m269 3 c0 -8 -4 -18 -10 -21 -18 -11 -11 -88 10 -120 l20 -30 1 30 c0 17
3 24 6 17 6 -17 -5 -62 -16 -62 -24 0 -56 158 -37 188 10 17 26 15 26 -2z
m-1250 -5 c0 -6 -4 -13 -10 -16 -5 -3 -10 1 -10 9 0 9 5 16 10 16 6 0 10 -4
10 -9z m-1564 -63 c-11 -20 -14 -43 -10 -61 4 -20 3 -27 -5 -23 -6 4 -11 18
-11 30 0 28 29 101 37 93 3 -3 -2 -21 -11 -39z m2061 -54 c-6 -6 -44 49 -52
76 -4 14 6 4 25 -24 17 -26 29 -50 27 -52z m473 86 c8 -5 11 -10 5 -10 -5 0
-17 5 -25 10 -8 5 -10 10 -5 10 6 0 17 -5 25 -10z m-960 -95 c23 -194 112
-484 185 -607 39 -66 33 -80 -6 -15 -63 100 -109 221 -158 412 -39 152 -60
327 -36 304 2 -3 9 -45 15 -94z m682 74 c-13 -5 -22 -17 -22 -29 0 -12 4 -18
10 -15 6 3 7 -1 4 -10 -7 -18 -7 -18 -23 12 -10 19 -8 26 9 43 11 11 26 18 32
14 7 -5 4 -10 -10 -15z m-1122 7 c0 -3 -4 -8 -10 -11 -5 -3 -10 -1 -10 4 0 6
5 11 10 11 6 0 10 -2 10 -4z m-557 -93 c-8 -60 -10 -65 -18 -39 -5 19 -4 36 4
48 7 12 10 32 6 51 -6 25 -4 29 5 20 9 -9 10 -28 3 -80z m1737 43 c0 -6 -7 -2
-15 8 -8 11 -15 25 -15 30 0 6 7 2 15 -8 8 -11 15 -25 15 -30z m180 -3 c0 -3
-12 2 -26 12 -14 9 -29 14 -32 10 -4 -3 0 -10 8 -15 13 -8 12 -10 -2 -10 -18
0 -25 30 -12 43 7 6 64 -29 64 -40z m141 20 c-12 -20 -14 -14 -5 12 4 9 9 14
11 11 3 -2 0 -13 -6 -23z m188 11 c1 11 3 17 6 14 3 -3 2 -20 -2 -39 -7 -33
-7 -33 -14 -9 -10 36 -9 59 1 35 8 -19 9 -19 9 -1z m-1819 2 c0 -2 -12 -12
-27 -21 l-28 -18 19 21 c17 20 36 29 36 18z m1278 -19 c2 -9 -1 -17 -7 -17 -6
0 -10 6 -8 13 1 6 -4 11 -10 10 -7 -2 -13 2 -13 8 0 17 34 5 38 -14z m-1350
-9 c-7 -13 -11 -30 -9 -38 2 -11 0 -12 -9 -4 -9 9 -8 18 5 38 21 32 30 34 13
4z m1616 6 c4 -10 1 -14 -6 -12 -15 5 -23 28 -10 28 5 0 13 -7 16 -16z m56 -5
c0 -5 -4 -7 -10 -4 -5 3 -10 1 -10 -6 0 -7 -3 -10 -6 -6 -8 7 4 27 17 27 5 0
9 -5 9 -11z m-96 -41 c3 -7 3 -2 0 12 -4 19 -3 21 5 9 6 -9 12 -40 15 -70 3
-30 8 -78 12 -108 5 -38 3 -52 -4 -47 -8 5 -11 -4 -10 -26 1 -35 -18 -106 -33
-123 -6 -6 -16 -3 -27 8 -15 16 -15 19 -2 28 11 8 12 12 3 16 -7 2 -13 11 -13
18 0 7 -7 26 -15 41 -8 16 -15 46 -15 67 0 20 -5 37 -11 37 -6 0 -8 -10 -5
-22 4 -14 -1 -10 -11 10 -9 17 -23 32 -30 32 -7 0 -13 4 -13 9 0 6 12 6 30 1
17 -5 30 -6 30 -2 0 4 5 0 10 -8 9 -13 11 -13 20 0 8 13 10 12 10 -2 0 -10 4
-18 8 -18 4 0 6 16 4 35 -4 33 -5 34 -19 18 -13 -17 -14 -17 -9 2 2 11 7 35
11 53 4 17 11 32 15 32 5 0 7 7 3 16 -5 14 -3 15 15 5 11 -6 23 -16 26 -23z
m-67 0 c-3 -8 -6 -5 -6 6 -1 11 2 17 5 13 3 -3 4 -12 1 -19z m-910 -10 c-3 -8
-6 -5 -6 6 -1 11 2 17 5 13 3 -3 4 -12 1 -19z m835 -18 l28 -40 -40 0 c-42 0
-58 -24 -22 -33 13 -4 12 -5 -5 -6 -12 0 -23 -7 -26 -13 -6 -16 -36 20 -36 42
0 9 5 5 13 -9 14 -26 30 -14 19 15 -4 11 -3 15 4 11 12 -8 36 50 27 64 -3 5
-2 9 3 9 4 -1 20 -19 35 -40z m-857 -236 c42 -151 85 -263 130 -340 28 -47 30
-53 9 -29 -55 64 -134 272 -180 475 -13 58 -23 114 -23 125 1 11 8 -9 16 -45
8 -36 29 -119 48 -186z m738 226 c3 -11 1 -18 -4 -14 -5 3 -9 12 -9 20 0 20 7
17 13 -6z m-2268 0 c3 -5 1 -10 -4 -10 -6 0 -11 5 -11 10 0 6 2 10 4 10 3 0 8
-4 11 -10z m2026 -23 c-6 -6 -11 -18 -11 -26 0 -12 3 -11 13 3 12 16 14 16 26
2 11 -13 11 -19 1 -31 -7 -9 -15 -13 -18 -10 -3 2 1 11 8 20 15 17 0 21 -18 3
-8 -8 -14 -5 -22 16 -12 32 -6 48 16 39 11 -4 12 -9 5 -16z m-467 4 c3 -5 -8
-11 -24 -13 -30 -5 -41 6 -17 15 20 9 35 8 41 -2z m-1567 -38 c-3 -10 -5 -4
-5 12 0 17 2 24 5 18 2 -7 2 -21 0 -30z m2865 -69 c-4 -7 -8 13 -8 44 l-2 57
9 -44 c5 -24 5 -50 1 -57z m-2244 -23 c-5 -24 -6 -46 -3 -49 2 -3 7 15 11 39
6 38 8 40 16 19 5 -14 5 -26 0 -29 -5 -3 -12 -16 -16 -28 -13 -43 -29 -26 -22
23 3 26 7 68 7 93 2 45 2 45 8 11 4 -19 3 -55 -1 -79z m952 96 c0 -7 -11 -14
-25 -15 -31 -2 -33 15 -2 21 12 2 23 5 25 6 1 0 2 -5 2 -12z m807 7 c-3 -3
-12 -4 -19 -1 -8 3 -5 6 6 6 11 1 17 -2 13 -5z m73 -4 c0 -5 -9 -10 -20 -10
-11 0 -20 5 -20 10 0 6 9 10 20 10 11 0 20 -4 20 -10z m-1851 -55 c-1 -29 -1
-29 -9 -5 -4 14 -8 34 -9 45 -1 16 1 17 9 5 5 -8 9 -28 9 -45z m546 45 c3 -6
-1 -7 -9 -4 -18 7 -21 14 -7 14 6 0 13 -4 16 -10z m440 -59 c3 -20 9 -47 11
-61 5 -23 4 -24 -9 -7 -8 9 -21 15 -29 12 -10 -4 -17 7 -24 43 l-10 49 27 0
c24 0 28 -5 34 -36z m505 29 c0 -5 -4 -10 -10 -10 -17 0 -11 -14 11 -28 19
-12 20 -11 15 10 -7 23 -6 23 11 -2 10 -13 26 -31 36 -39 9 -9 17 -20 17 -25
0 -5 -14 3 -32 20 -25 23 -30 25 -24 9 6 -16 1 -14 -26 10 -18 17 -35 31 -37
32 -6 4 21 33 30 33 5 0 9 -4 9 -10z m-2945 -93 c17 -9 24 -16 17 -17 -31 -1
-103 55 -124 95 -6 11 9 1 33 -21 24 -23 58 -49 74 -57z m-20 73 c10 -11 16
-20 13 -20 -3 0 -13 9 -23 20 -10 11 -16 20 -13 20 3 0 13 -9 23 -20z m3519
-27 c-9 -76 -25 -187 -27 -190 -2 -1 -8 2 -16 6 -10 6 -10 20 -2 66 6 32 11
83 11 112 0 46 3 53 20 53 18 0 19 -5 14 -47z m-1506 21 c30 -6 28 -17 -13
-63 l-36 -39 -44 15 c-48 16 -59 26 -22 21 18 -2 22 2 22 25 -1 15 3 27 7 27
4 0 8 6 8 14 0 13 15 13 78 0z m-1127 -35 c-5 -13 -10 -19 -10 -12 -1 15 10
45 15 40 3 -2 0 -15 -5 -28z m-802 -5 c14 -12 -19 -1 -35 12 -18 14 -18 14 6
3 14 -6 27 -13 29 -15z m36 -12 c-3 -3 -11 0 -18 7 -9 10 -8 11 6 5 10 -3 15
-9 12 -12z m112 -8 c-3 -3 -12 -4 -19 -1 -8 3 -5 6 6 6 11 1 17 -2 13 -5z
m1546 -1 c-7 -2 -21 -2 -30 0 -10 3 -4 5 12 5 17 0 24 -2 18 -5z m1957 -9 c0
-8 -4 -12 -10 -9 -5 3 -10 10 -10 16 0 5 5 9 10 9 6 0 10 -7 10 -16z m-2836
-30 c-5 -19 -4 -25 5 -20 6 4 11 3 11 -3 0 -15 -18 -23 -25 -11 -7 12 2 60 10
60 3 0 2 -12 -1 -26z m1189 -37 c-3 -18 -10 -43 -15 -56 l-9 -25 -20 33 -20
34 27 28 c33 34 45 29 37 -14z m397 33 c0 -5 -2 -10 -4 -10 -3 0 -8 5 -11 10
-3 6 -1 10 4 10 6 0 11 -4 11 -10z m1223 -51 c-5 -5 -7 7 -4 29 5 34 6 35 9 8
2 -16 0 -32 -5 -37z m-2194 5 c-6 -7 -4 -22 5 -38 9 -18 16 -23 19 -14 3 7 6
3 6 -10 1 -13 -3 -20 -9 -17 -5 3 -10 -3 -10 -14 0 -10 -3 -28 -6 -38 -5 -15
-4 -16 5 -3 9 12 10 8 5 -15 -7 -32 -51 -125 -59 -125 -6 0 6 31 19 50 8 12 8
13 -4 3 -8 -7 -17 -13 -21 -13 -10 0 1 72 14 88 5 7 7 15 3 19 -3 3 -6 1 -6
-5 0 -7 -7 -12 -15 -12 -11 0 -15 -11 -15 -37 -1 -21 -8 -49 -16 -63 -10 -16
-13 -18 -8 -5 12 33 22 128 17 161 -3 17 0 35 6 38 7 5 11 -6 11 -33 0 -31 3
-39 15 -35 17 7 27 35 30 84 5 85 6 87 14 65 5 -11 5 -25 0 -31z m417 27 c-3
-4 -31 -11 -61 -14 -33 -3 -74 -16 -99 -31 -51 -30 -136 -121 -136 -145 0 -11
40 -37 126 -80 l126 -63 30 29 c24 22 28 23 20 7 -18 -34 -39 -47 -69 -39 -29
7 -242 111 -257 125 -24 24 104 156 189 196 48 23 142 34 131 15z m62 -27 c2
-13 -4 -24 -13 -28 -9 -3 -15 -1 -14 7 3 26 -1 38 -13 31 -7 -4 -8 -3 -4 5 12
19 41 8 44 -15z m979 0 c-3 -3 -12 -4 -19 -1 -8 3 -5 6 6 6 11 1 17 -2 13 -5z
m-1433 -19 c3 -8 1 -15 -4 -15 -6 0 -10 7 -10 15 0 8 2 15 4 15 2 0 6 -7 10
-15z m-113 -87 c-4 -83 -4 -83 -13 -33 -4 28 -5 67 -2 88 10 65 19 32 15 -55z
m1083 70 c9 -37 7 -48 -10 -48 -9 0 -14 -6 -11 -12 2 -7 12 -13 22 -13 12 0
24 -13 32 -34 14 -32 13 -33 -6 -28 -12 3 -21 0 -21 -6 0 -7 -5 -5 -10 3 -14
21 -12 30 6 30 8 0 13 4 9 10 -3 5 -11 7 -18 4 -12 -4 -23 18 -42 83 -5 20 0
25 36 32 4 0 9 -9 13 -21z m545 18 c-12 -10 -79 -16 -79 -6 0 5 19 10 42 10
23 0 39 -2 37 -4z m-2105 -71 c4 -20 3 -25 -3 -15 -5 8 -11 31 -15 50 -7 41 7
13 18 -35z m2018 54 c2 -7 19 -8 57 -1 41 7 59 6 80 -4 15 -8 20 -14 11 -15
-8 0 -4 -5 10 -11 14 -6 29 -10 33 -9 4 1 18 -6 30 -15 19 -14 19 -16 3 -10
-19 7 -19 6 -3 -12 19 -21 22 -48 7 -57 -5 -3 -10 -2 -10 4 0 6 -13 17 -30 26
-30 15 -37 11 -22 -13 5 -7 17 -10 28 -6 15 5 16 4 5 -4 -12 -8 -12 -14 -3
-25 10 -12 9 -16 -4 -21 -19 -7 -44 10 -44 31 0 8 -3 12 -7 10 -5 -3 -14 1
-21 9 -7 8 -9 14 -5 14 4 0 -14 21 -41 45 -66 60 -104 62 -84 4 12 -36 4 -49
-12 -20 -6 12 -8 36 -4 56 6 34 19 46 26 24z m-963 -46 c0 -21 -4 -47 -9 -58
-6 -14 -9 -4 -9 38 -1 32 3 57 9 57 6 0 10 -17 9 -37z m999 -4 c27 0 27 0 4
-10 -28 -11 -42 -4 -41 19 0 11 3 12 6 5 2 -7 17 -13 31 -14z m756 6 c3 -8 1
-15 -4 -15 -6 0 -10 7 -10 15 0 8 2 15 4 15 2 0 6 -7 10 -15z m8 -47 c-7 -7
-12 -8 -12 -2 0 14 12 26 19 19 2 -3 -1 -11 -7 -17z m-525 -19 c6 -6 9 -17 6
-24 -2 -8 0 -23 6 -34 7 -13 8 -22 1 -26 -6 -4 -13 7 -16 24 -4 17 -10 28 -15
25 -5 -3 -6 -10 -3 -16 4 -7 2 -8 -4 -4 -12 7 -5 36 9 36 5 0 9 5 9 11 0 5 -4
7 -10 4 -5 -3 -10 -1 -10 4 0 14 13 14 27 0z m553 7 c0 -3 -4 -8 -10 -11 -5
-3 -10 -1 -10 4 0 6 5 11 10 11 6 0 10 -2 10 -4z m-358 -38 c-7 -7 -12 -8 -12
-2 0 14 12 26 19 19 2 -3 -1 -11 -7 -17z m-1461 -15 c-12 -20 -14 -14 -5 12 4
9 9 14 11 11 3 -2 0 -13 -6 -23z m1859 -4 c0 -5 -5 -9 -11 -9 -5 0 -7 5 -4 10
3 6 1 10 -4 10 -6 0 -11 5 -11 11 0 8 5 8 15 -1 8 -7 15 -16 15 -21z m-550
-23 c0 -5 -7 -1 -15 10 -8 10 -14 24 -14 29 0 6 6 1 14 -9 8 -11 15 -24 15
-30z m-205 2 c5 4 5 1 1 -6 -6 -11 -12 -9 -27 7 -10 11 -19 24 -19 28 1 4 9
-2 19 -14 10 -12 22 -19 26 -15z m-515 18 c0 -3 -4 -8 -10 -11 -5 -3 -10 -1
-10 4 0 6 5 11 10 11 6 0 10 -2 10 -4z m1113 -3 c-7 -2 -19 -2 -25 0 -7 3 -2
5 12 5 14 0 19 -2 13 -5z m28 -38 c6 4 17 -2 25 -14 16 -22 44 -29 44 -11 0 6
-6 10 -13 10 -8 0 -22 9 -32 20 -24 27 -14 25 29 -4 30 -20 33 -26 21 -36 -11
-9 -29 -5 -84 21 -39 18 -71 37 -71 42 0 5 16 -1 35 -13 19 -12 40 -18 46 -15z
m-501 -12 c0 -7 6 -16 14 -19 13 -5 31 -34 21 -34 -16 0 -73 64 -68 76 4 11 9
12 19 3 8 -6 14 -18 14 -26z m500 27 c0 -5 -7 -7 -15 -4 -8 4 -15 8 -15 10 0
2 7 4 15 4 8 0 15 -4 15 -10z m-1153 -6 c-3 -3 -12 -4 -19 -1 -8 3 -5 6 6 6
11 1 17 -2 13 -5z m1367 -34 c6 0 4 -5 -4 -10 -13 -9 -13 -11 0 -20 21 -14 32
-12 25 3 -4 6 0 4 7 -5 8 -9 26 -20 41 -23 15 -4 30 -11 33 -16 3 -5 9 -7 14
-4 4 3 13 -2 20 -10 18 -22 -5 -20 -44 4 -17 10 -47 24 -66 30 -19 6 -46 21
-60 32 l-25 20 25 -6 25 -6 -22 17 c-13 9 -23 21 -23 26 0 5 10 0 22 -12 12
-11 27 -20 32 -20z m-794 -18 c12 -4 13 -2 3 9 -7 7 -13 17 -13 22 0 6 13 -3
28 -19 33 -33 118 -94 132 -94 6 0 10 -4 10 -10 0 -5 -6 -10 -12 -10 -9 0 -8
-4 2 -10 20 -13 33 -12 24 1 -4 7 7 4 25 -7 17 -10 31 -22 31 -26 0 -12 -10
-9 -28 8 -9 10 -18 12 -20 6 -5 -16 -60 16 -68 40 -4 14 -9 17 -14 9 -9 -16
-99 27 -100 47 0 7 -4 10 -10 7 -5 -3 -10 3 -10 14 0 11 -4 23 -10 26 -5 3
-10 14 -10 23 0 12 4 10 13 -7 6 -14 19 -26 27 -29z m168 23 c7 -15 8 -25 2
-25 -6 0 -10 7 -10 15 0 8 -4 15 -10 15 -5 0 -10 5 -10 10 0 19 17 10 28 -15z
m-1841 -7 c-3 -8 -6 -5 -6 6 -1 11 2 17 5 13 3 -3 4 -12 1 -19z m1887 -50 c-3
-5 -1 -8 5 -8 5 0 22 -11 37 -25 15 -14 22 -25 16 -25 -16 0 -72 53 -72 68 0
7 -4 10 -10 7 -6 -3 -7 1 -4 10 6 14 8 14 19 -2 7 -10 11 -21 9 -25z m-1009
22 c3 -5 1 -10 -4 -10 -6 0 -11 5 -11 10 0 6 2 10 4 10 3 0 8 -4 11 -10z
m-882 -26 c-4 -12 -8 -13 -14 -3 -9 15 -2 32 11 24 5 -3 6 -13 3 -21z m634 20
c-3 -3 -12 -4 -19 -1 -8 3 -5 6 6 6 11 1 17 -2 13 -5z m1828 -38 c11 -8 15
-16 8 -16 -6 0 -15 5 -18 10 -4 6 -10 8 -15 5 -4 -3 -23 2 -41 11 -31 14 -32
15 -6 9 20 -4 27 -2 22 6 -9 13 17 0 50 -25z m-1622 17 c-13 -2 -33 -2 -45 0
-13 2 -3 4 22 4 25 0 35 -2 23 -4z m150 0 c-7 -2 -19 -2 -25 0 -7 3 -2 5 12 5
14 0 19 -2 13 -5z m457 -18 c13 -14 21 -25 18 -25 -2 0 -15 11 -28 25 -13 14
-21 25 -18 25 2 0 15 -11 28 -25z m-413 9 c-3 -3 -12 -4 -19 -1 -8 3 -5 6 6 6
11 1 17 -2 13 -5z m306 -1 c-7 -2 -21 -2 -30 0 -10 3 -4 5 12 5 17 0 24 -2 18
-5z m-1384 -62 c-12 -28 -24 -50 -26 -48 -2 2 6 27 18 56 12 28 24 50 26 48 2
-2 -6 -27 -18 -56z m-719 19 c0 -5 0 -12 0 -15 0 -3 -2 -5 -5 -5 -3 0 -5 3 -4
6 0 4 -5 11 -13 15 -10 7 -9 9 5 9 9 0 17 -4 17 -10z m3420 -20 c28 -39 21
-87 -10 -70 -24 13 -40 13 -20 0 8 -5 11 -10 5 -10 -18 0 -65 47 -62 61 2 8 2
11 0 7 -6 -11 -23 -10 -23 1 0 7 61 37 82 40 4 1 16 -13 28 -29z m-620 -45 c0
3 13 -8 30 -26 17 -20 29 -42 28 -56 -3 -30 -10 -29 -44 6 -16 16 -38 31 -49
33 -11 2 -19 10 -17 16 1 7 -2 12 -8 12 -5 0 -10 -5 -10 -12 0 -6 -3 -8 -6 -5
-11 10 17 37 38 37 11 0 16 5 13 11 -4 6 -13 8 -21 5 -15 -6 -19 6 -7 18 4 4
18 -4 30 -19 13 -14 23 -23 23 -20z m-2530 -19 c0 -2 -7 -7 -16 -10 -8 -3 -12
-2 -9 4 6 10 25 14 25 6z m80 -6 c18 -12 2 -12 -25 0 -13 6 -15 9 -5 9 8 0 22
-4 30 -9z m3077 -62 c-3 -8 -6 -5 -6 6 -1 11 2 17 5 13 3 -3 4 -12 1 -19z
m-800 -40 c-3 -8 -6 -5 -6 6 -1 11 2 17 5 13 3 -3 4 -12 1 -19z m800 -10 c-3
-7 -5 -2 -5 12 0 14 2 19 5 13 2 -7 2 -19 0 -25z m-577 -3 c0 -8 -9 -24 -19
-34 -11 -11 -15 -21 -10 -23 5 -2 3 -12 -6 -23 -15 -20 -15 -20 -8 0 6 19 5
19 -19 -2 -41 -38 -40 -25 2 18 21 22 42 49 45 60 8 23 15 25 15 4z m-2631
-90 c0 -5 -4 -3 -9 5 -5 8 -9 22 -9 30 0 16 17 -16 18 -35z m154 10 c-3 -9 -8
-14 -10 -11 -3 3 -2 9 2 15 9 16 15 13 8 -4z m2400 -35 c6 0 -6 -12 -28 -27
-22 -15 -46 -26 -53 -25 -7 2 -12 -1 -11 -5 3 -14 -13 -43 -23 -43 -6 0 -5 7
2 15 7 9 10 18 6 22 -10 10 66 74 82 68 7 -3 19 -5 25 -5z m-2139 -65 c9 -19
21 -37 26 -40 6 -3 10 -12 10 -20 0 -7 -22 7 -49 33 -41 39 -47 48 -33 54 27
11 29 10 46 -27z m2011 -55 c3 -5 1 -10 -4 -10 -6 0 -11 5 -11 10 0 6 2 10 4
10 3 0 8 -4 11 -10z m-2355 -15 c0 -8 -2 -15 -4 -15 -2 0 -6 7 -10 15 -3 8 -1
15 4 15 6 0 10 -7 10 -15z m2084 -20 c-9 -14 -18 -25 -21 -25 -5 0 5 18 20 38
17 22 18 13 1 -13z m-2270 -11 c3 -8 2 -12 -4 -9 -6 3 -10 10 -10 16 0 14 7
11 14 -7z m3389 -53 c-6 -9 -13 6 -18 40 l-6 34 14 -35 c7 -19 12 -37 10 -39z
m-2757 27 l29 -33 -32 29 c-31 28 -38 36 -30 36 2 0 16 -15 33 -32z m-442 11
c-3 -6 6 -33 21 -61 15 -27 25 -52 22 -54 -3 -3 -8 4 -12 15 -3 12 -11 21 -16
21 -6 0 -7 5 -4 10 3 6 2 10 -3 10 -12 0 -25 47 -17 60 4 6 8 10 11 10 3 0 2
-5 -2 -11z m2201 -50 c11 -16 1 -19 -13 -3 -7 8 -8 14 -3 14 5 0 13 -5 16 -11z
m-16 -39 c-6 -4 -20 -7 -32 -6 -12 1 -28 -5 -35 -14 -12 -13 -13 -13 -9 0 2 8
13 20 25 26 31 15 41 26 17 19 -16 -6 -17 -5 -5 4 11 7 19 6 33 -6 12 -11 14
-19 6 -23z m1050 -50 c0 -15 -6 -5 -14 25 -17 62 -17 69 0 30 8 -16 14 -41 14
-55z m-1066 13 c-7 -2 -21 -2 -30 0 -10 3 -4 5 12 5 17 0 24 -2 18 -5z m-2123
-23 c0 -5 -5 -10 -11 -10 -5 0 -7 5 -4 10 3 6 8 10 11 10 2 0 4 -4 4 -10z
m565 -8 c-3 -3 -11 0 -18 7 -9 10 -8 11 6 5 10 -3 15 -9 12 -12z m1414 -1
c-20 -9 -44 -23 -53 -30 -9 -8 -19 -11 -23 -7 -3 3 0 6 7 6 7 0 10 3 6 7 -3 4
13 15 36 24 56 22 73 22 27 0z m-1436 -50 c15 -8 27 -18 27 -22 0 -5 -16 1
-35 12 -19 12 -35 23 -35 26 0 2 3 3 8 1 4 -2 19 -10 35 -17z m2584 -16 c0 -8
-4 -15 -9 -15 -10 0 -11 14 -1 23 9 10 10 9 10 -8z m9 -74 c-3 -20 -6 -48 -6
-63 0 -20 -5 -28 -17 -28 -14 0 -15 -2 -4 -9 8 -5 9 -11 3 -15 -13 -8 -20 15
-23 74 -3 64 7 89 32 83 18 -5 20 -11 15 -42z m-103 -31 c-7 -28 -13 -25 -13
6 0 14 4 23 9 20 5 -3 7 -15 4 -26z m32 -88 c-3 -3 -11 0 -18 7 -9 10 -8 11 6
5 10 -3 15 -9 12 -12z m-2270 -51 c7 -13 -23 -41 -43 -40 -25 1 -69 17 -52 18
13 1 13 2 0 11 -9 6 -10 10 -3 10 6 0 18 -7 27 -15 8 -8 21 -15 29 -15 8 0 20
7 27 15 8 9 9 15 2 15 -6 0 -14 -4 -17 -10 -3 -5 -11 -10 -18 -10 -6 0 -2 7 9
15 22 17 31 18 39 6z"/>
<path d="M2402 3920 c-2 -58 -12 -109 -37 -190 -5 -17 -4 -22 3 -15 24 25 43
114 39 191 l-3 79 -2 -65z"/>
<path d="M2585 4500 c3 -5 15 -10 25 -10 10 0 22 5 25 10 4 6 -7 10 -25 10
-18 0 -29 -4 -25 -10z"/>
<path d="M3146 4141 c12 -12 186 -82 191 -77 7 7 -68 46 -128 66 -65 22 -77
24 -63 11z"/>
<path d="M3210 3566 c-1 -20 24 -86 32 -86 5 0 6 10 2 23 -9 29 -33 75 -34 63z"/>
<path d="M3640 3914 c0 -5 18 -28 40 -49 22 -21 40 -35 40 -29 0 5 -18 28 -40
49 -22 21 -40 35 -40 29z"/>
<path d="M3393 3747 c-14 -30 -1 -53 23 -42 18 8 18 8 2 12 -22 5 -23 22 -3
29 19 8 20 24 2 24 -8 0 -19 -11 -24 -23z"/>
<path d="M3410 3613 c-22 -69 -39 -131 -37 -136 4 -13 77 184 84 228 11 68 -6
33 -47 -92z"/>
<path d="M3617 3680 c-14 -11 -51 -30 -84 -42 l-58 -23 37 -3 c23 -2 38 -9 40
-18 2 -10 20 4 52 41 51 59 57 79 13 45z"/>
<path d="M3345 3570 c-7 -22 1 -40 18 -40 8 0 8 3 -1 12 -9 9 -8 16 5 30 14
16 15 18 0 18 -9 0 -18 -9 -22 -20z"/>
<path d="M3317 3429 c-19 -11 -23 -54 -6 -65 6 -3 18 2 27 11 16 17 16 17 0
12 -21 -7 -24 13 -6 31 16 16 7 23 -15 11z"/>
<path d="M4775 3520 c3 -5 8 -10 11 -10 2 0 4 5 4 10 0 6 -5 10 -11 10 -5 0
-7 -4 -4 -10z"/>
<path d="M4800 3524 c1 -15 38 -59 45 -52 3 3 -5 18 -19 33 -15 16 -26 24 -26
19z"/>
<path d="M4500 3465 c0 -3 9 -15 20 -27 22 -24 26 -18 10 13 -10 17 -30 27
-30 14z"/>
<path d="M4554 3376 c23 -18 36 -20 36 -6 0 6 -4 10 -9 10 -5 0 -18 3 -28 6
-16 5 -16 4 1 -10z"/>
<path d="M3240 3270 c0 -5 5 -10 10 -10 6 0 10 -6 10 -14 0 -15 37 -32 46 -23
3 3 -5 17 -17 31 -23 26 -49 35 -49 16z"/>
<path d="M4146 3115 c-3 -8 -1 -15 4 -15 6 0 10 7 10 15 0 8 -2 15 -4 15 -2 0
-6 -7 -10 -15z"/>
<path d="M4134 3072 c3 -5 1 -12 -6 -14 -8 -3 -9 -6 -1 -11 6 -4 13 0 17 8 3
8 0 17 -6 21 -6 4 -8 3 -4 -4z"/>
<path d="M4955 3220 c-10 -17 6 -51 22 -48 26 5 41 37 23 48 -20 13 -37 13
-45 0z"/>
<path d="M4095 2940 c-3 -5 -2 -10 4 -10 5 0 13 5 16 10 3 6 2 10 -4 10 -5 0
-13 -4 -16 -10z"/>
<path d="M4102 2750 c0 -19 2 -27 5 -17 2 9 2 25 0 35 -3 9 -5 1 -5 -18z"/>
<path d="M1756 2375 c-9 -14 -13 -25 -9 -25 10 0 36 40 30 46 -2 3 -12 -7 -21
-21z"/>
<path d="M2805 2050 c-10 -11 -14 -20 -9 -20 5 0 15 9 22 20 7 11 11 20 9 20
-2 0 -12 -9 -22 -20z"/>
<path d="M4386 2213 c-6 -14 -5 -15 5 -6 7 7 10 15 7 18 -3 3 -9 -2 -12 -12z"/>
<path d="M4076 1771 c-4 -7 -5 -15 -2 -18 9 -9 19 4 14 18 -4 11 -6 11 -12 0z"/>
<path d="M3927 2050 c-4 -16 0 -20 19 -20 23 0 23 1 7 20 -10 11 -18 20 -19
20 -1 0 -4 -9 -7 -20z"/>
<path d="M3760 1746 c0 -2 7 -7 16 -10 8 -3 12 -2 9 4 -6 10 -25 14 -25 6z"/>
<path d="M3822 1598 c5 -15 28 -23 28 -10 0 5 -7 13 -16 16 -10 4 -14 1 -12
-6z"/>
<path d="M3875 1540 c3 -5 8 -10 11 -10 2 0 4 5 4 10 0 6 -5 10 -11 10 -5 0
-7 -4 -4 -10z"/>
<path d="M2196 5753 c-11 -46 21 -111 76 -156 55 -45 73 -49 23 -6 -55 49 -79
89 -85 144 -6 48 -6 49 -14 18z"/>
<path d="M4801 5592 c52 -34 116 -102 130 -140 6 -15 8 -40 5 -57 -5 -28 -5
-29 9 -11 18 24 19 38 2 79 -21 49 -65 95 -121 127 -65 38 -84 39 -25 2z"/>
<path d="M3010 5301 c8 -5 33 -12 55 -15 27 -4 34 -4 20 3 -31 13 -93 24 -75
12z"/>
<path d="M3251 5256 c18 -20 449 -80 464 -64 3 2 -89 16 -203 31 -114 15 -220
30 -237 34 -16 3 -27 3 -24 -1z"/>
</g>
</svg>
